<svg version="1.2" id="svg2" xmlns="http://www.w3.org/2000/svg" xmlns:svg="http://www.w3.org/2000/svg" xmlns:xlink="http://www.w3.org/1999/xlink">
  <defs>
    <radialGradient cx="-45.114056" cy="-115.85104" r="260.19241" fx="-45.114056" fy="-115.85104" id="radialGradient2827" gradientTransform="matrix(0.4303616,1.192349,-1.2335656,0.44525502,-187.36195,56.662499)" gradientUnits="userSpaceOnUse">
      <stop style="stop-color:#FFFFFF;stop-opacity:1" offset="0"/>
      <stop style="stop-color:#82FFDF;stop-opacity:1" offset="0.5"/>
      <stop style="stop-color:#00FF00;stop-opacity:1" offset="1"/>
    </radialGradient>
    <linearGradient x1="307.61639" x2="233.22218" y1="389.40985" y2="500.95959" id="linearGradient3649" gradientTransform="matrix(1.28775,0,0,1.2367006,-101.06545,-420.97472)" gradientUnits="userSpaceOnUse">
      <stop style="stop-color:#FFFFFF;stop-opacity:0.69491524" offset="0"/>
      <stop style="stop-color:#FFFFFF;stop-opacity:0.18644068" offset="1"/>
    </linearGradient>
    <linearGradient x1="278.46204" x2="263.13385" y1="277.01147" y2="202.48863" id="linearGradient3722" gradientUnits="userSpaceOnUse">
      <stop style="stop-color:#FF0000;stop-opacity:1" offset="0"/>
      <stop style="stop-color:#8F0000;stop-opacity:1" offset="1"/>
    </linearGradient>
    <filter id="filter7893" x="-0.23404977" y="-0.84491956" width="1.4680995" height="2.6898391">
      <feGaussianBlur id="feGaussianBlur7895" stdDeviation="33.554271"/>
    </filter>
  </defs>
  <path d="M302.73167,79.02241500000002 C302.73167,210.23802 183.81645,132.67106 43.429858000000024,132.67106C-96.95673499999998,132.67106 -205.65315999999999,210.23802 -205.65315999999999,79.02241500000001C-205.65315999999999,-52.193189000000004 -91.84733999999999,-158.56444999999997 48.539253,-158.56444999999997C188.92585,-158.56444999999997 302.73167,-52.19318899999996 302.73167,79.02241500000002Z" id="path2816" transform="matrix(1,0,0,1,235.03218,183.93822)" style="opacity:1;stroke:#000000;fill:url(#radialGradient2827);fill-opacity:1;stroke-opacity:1;stroke-width:12;stroke-miterlimit:4;stroke-linecap:none;stroke-linejoin:round;"/>
  <path d="M505.57038000000006,207.18339 C505.57038,299.21596999999997 402.61213,244.81171 281.06366,244.81171C159.51523000000003,244.81171 65.40451200000004,299.21597 65.40451200000004,207.18339C65.40451200000004,115.15082 163.93900000000002,40.543688 285.48744000000005,40.543688C407.0359000000001,40.543688 505.57038000000006,115.15082 505.57038000000006,207.18339Z" id="path2816-5" style="opacity:1;stroke:none;fill:url(#linearGradient3649);fill-opacity:1;stroke-opacity:1;stroke-width:1;stroke-miterlimit:3;stroke-linecap:none;stroke-linejoin:round;"/>
  <path d="M149.44981,156.94069 C160.7718,116.51414 230.24241,105.23417999999998 246.64431000000002,157.41163999999998" id="path3653" style="opacity:1;stroke:#000000;fill:none;fill-opacity:1;stroke-opacity:1;stroke-width:20;stroke-miterlimit:4;stroke-linecap:round;stroke-linejoin:round;"/>
  <path d="M319.3372,154.48739 C330.65918999999997,114.06084000000001 398.22357999999997,108.49955 416.5317,154.95834" id="path3653-5" style="opacity:1;stroke:#000000;fill:none;fill-opacity:1;stroke-opacity:1;stroke-width:20;stroke-miterlimit:4;stroke-linecap:round;stroke-linejoin:round;"/>
  <path d="M427.91182999999995,216.97607999999997 C427.91183,252.95456 367.00571,282.12086999999997 291.87419,282.12086999999997C216.74267,282.12086999999997 155.83655,252.95455999999996 155.83655,216.97607999999997C155.83655,180.99760999999995 218.02002,223.36281999999997 293.15153999999995,223.36281999999997C368.28306,223.36281999999997 427.91182999999995,180.99760999999998 427.91182999999995,216.97607999999997Z" id="path3713" style="opacity:1;stroke:none;fill:url(#linearGradient3722);fill-opacity:1;stroke-opacity:1;stroke-width:0;stroke-miterlimit:4;stroke-linecap:round;stroke-linejoin:round;"/>
  <ellipse cx="280.57103" cy="515.71445" rx="172.03661" ry="50" id="untitled" style="opacity:1;stroke:none;fill:#4C4C4C;filter:url(#filter7893);fill-opacity:1;stroke-opacity:1;stroke-width:1;stroke-miterlimit:3;stroke-linecap:none;stroke-linejoin:round;"/>
  <text x="101.95" y="460.45" id="text7897" style="font-size:100px;font-family:Arial Black;font-weight:normal;fill:#0057FF;opacity:0.5;glyph-orientation-horizontal:0;glyph-orientation-vertical:0;text-align:start;line-height:1.25;">
    <tspan x="101.95" y="460.45" style="font-size:100px;font-family:Arial Black;font-weight:normal;fill:#0057FF;opacity:0.5;glyph-orientation-horizontal:0;glyph-orientation-vertical:0;text-align:start;line-height:1.25;">HELLO!</tspan>
  </text>
</svg>
